<svg width="886" height="246" viewBox="0 0 886 246" fill="none" xmlns="http://www.w3.org/2000/svg">
<g filter="url(#filter0_d_1_3)">
<path d="M224.992 181.523C224.992 170.195 226.457 158.77 229.387 147.246C232.512 135.527 236.32 124.004 240.812 112.676C245.5 101.348 250.48 90.4102 255.754 79.8633C261.027 69.1211 266.008 59.0625 270.695 49.6875V45.8789C268.547 48.2227 265.129 51.9336 260.441 57.0117C255.949 61.8945 250.773 67.4609 244.914 73.7109C239.25 79.9609 233.195 86.6016 226.75 93.6328C220.5 100.469 214.445 107.012 208.586 113.262C202.922 119.512 197.844 125.176 193.352 130.254C188.859 135.137 185.539 138.75 183.391 141.094C181.242 143.438 179.191 146.953 177.238 151.641C175.285 156.133 173.137 160.723 170.793 165.41C168.449 170.098 165.812 174.199 162.883 177.715C160.148 181.23 157.023 182.988 153.508 182.988C150.578 182.988 148.234 182.695 146.477 182.109C144.914 181.523 143.742 180.645 142.961 179.473C142.18 178.105 141.691 176.445 141.496 174.492C141.301 172.539 141.203 170.195 141.203 167.461C141.203 153.008 143.254 139.043 147.355 125.566C151.652 111.895 156.145 98.0273 160.832 83.9648V80.1562C160.441 80.5469 159.758 81.2305 158.781 82.207C157.805 82.9883 157.219 83.5742 157.023 83.9648C152.336 90.9961 147.551 98.6133 142.668 106.816C137.785 114.824 132.707 122.832 127.434 130.84C122.16 138.652 116.496 146.172 110.441 153.398C104.387 160.625 97.8438 167.07 90.8125 172.734C83.7812 178.203 76.0664 182.598 67.668 185.918C59.4648 189.238 50.3828 190.898 40.4219 190.898C38.2734 190.898 35.3438 190.801 31.6328 190.605C28.1172 190.41 24.6016 189.824 21.0859 188.848C17.7656 187.871 14.8359 186.309 12.2969 184.16C9.95312 182.012 8.78125 178.984 8.78125 175.078C8.78125 173.516 9.66016 171.562 11.418 169.219C13.3711 166.68 15.0312 164.922 16.3984 163.945C19.1328 168.438 21.3789 171.465 23.1367 173.027C25.0898 174.395 27.8242 175.078 31.3398 175.078C37.1992 175.078 43.3516 174.199 49.7969 172.441C56.4375 170.488 62.7852 167.949 68.8398 164.824C75.0898 161.699 80.9492 158.086 86.418 153.984C91.8867 149.883 96.4766 145.586 100.188 141.094C103.117 137.188 106.633 132.207 110.734 126.152C115.031 119.902 119.523 113.164 124.211 105.938C129.094 98.5156 134.074 90.9961 139.152 83.3789C144.23 75.7617 149.113 68.5352 153.801 61.6992C158.684 54.668 163.176 48.418 167.277 42.9492C171.379 37.4805 174.895 33.3789 177.824 30.6445C180.559 30.6445 182.609 31.1328 183.977 32.1094C185.344 32.8906 186.32 34.0625 186.906 35.625C187.492 37.1875 187.785 39.043 187.785 41.1914C187.785 43.3398 187.785 45.5859 187.785 47.9297C187.785 56.1328 186.516 64.1406 183.977 71.9531C181.633 79.7656 178.996 87.3828 176.066 94.8047C173.137 102.031 170.402 109.16 167.863 116.191C165.52 123.223 164.348 130.156 164.348 136.992C164.348 137.383 164.348 138.066 164.348 139.043C164.543 140.02 164.641 140.703 164.641 141.094C183 120.781 198.82 103.203 212.102 88.3594C225.383 73.5156 236.613 60.918 245.793 50.5664C255.168 40.0195 262.785 31.5234 268.645 25.0781C274.504 18.4375 279.191 13.3594 282.707 9.84375C286.223 6.13281 288.859 3.59375 290.617 2.22656C292.57 0.859375 294.133 0.175781 295.305 0.175781C297.258 0.175781 298.723 0.761719 299.699 1.93359C300.676 3.10547 301.262 4.47266 301.457 6.03516C301.848 7.59766 301.945 9.25781 301.75 11.0156C301.75 12.7734 301.75 14.2383 301.75 15.4102C301.75 23.6133 300.188 32.0117 297.062 40.6055C294.133 49.0039 290.324 57.6953 285.637 66.6797C281.145 75.4688 276.164 84.4531 270.695 93.6328C265.422 102.617 260.441 111.895 255.754 121.465C251.262 131.035 247.453 140.801 244.328 150.762C241.398 160.527 239.934 170.586 239.934 180.938C239.934 186.211 240.031 190.117 240.227 192.656C240.422 195 241.008 196.953 241.984 198.516C242.961 200.273 244.523 202.031 246.672 203.789C248.82 205.742 251.848 208.77 255.754 212.871C251.262 215.41 246.867 216.387 242.57 215.801C238.469 215.41 234.855 213.75 231.73 210.82C228.801 207.891 226.652 203.887 225.285 198.809C223.918 193.73 223.82 187.969 224.992 181.523ZM287.688 180.352C287.688 177.422 288.566 173.32 290.324 168.047C292.082 162.578 294.328 156.719 297.062 150.469C299.992 144.219 303.215 137.871 306.73 131.426C310.441 124.98 314.152 119.121 317.863 113.848C321.574 108.574 325.09 104.277 328.41 100.957C331.73 97.6367 334.66 95.9766 337.199 95.9766C342.668 95.9766 345.402 98.6133 345.402 103.887C345.402 106.23 344.914 108.184 343.938 109.746C343.156 111.309 342.18 112.773 341.008 114.141C339.836 115.508 338.566 116.875 337.199 118.242C335.832 119.414 334.66 120.879 333.684 122.637C331.926 125.566 329.777 129.57 327.238 134.648C324.699 139.727 322.16 144.707 319.621 149.59C317.277 154.277 315.227 158.477 313.469 162.188C311.711 165.898 310.832 167.949 310.832 168.34V172.148C318.449 170.781 325.773 167.559 332.805 162.48C339.836 157.207 346.477 151.055 352.727 144.023C359.172 136.992 365.227 129.668 370.891 122.051C376.75 114.238 382.219 107.109 387.297 100.664C392.375 94.0234 397.16 88.5547 401.652 84.2578C406.145 79.9609 410.344 77.8125 414.25 77.8125C414.25 85.0391 412.785 91.582 409.855 97.4414C406.926 103.301 403.703 109.062 400.188 114.727C396.867 120.391 393.742 126.25 390.812 132.305C387.883 138.164 386.418 144.805 386.418 152.227C386.418 155.352 388.273 158.184 391.984 160.723C395.891 163.066 400.285 165.117 405.168 166.875C410.246 168.438 415.129 169.707 419.816 170.684C424.504 171.66 427.727 172.246 429.484 172.441V180.059C424.992 180.254 419.426 180.352 412.785 180.352C406.145 180.156 399.504 179.375 392.863 178.008C386.223 176.641 380.168 174.395 374.699 171.27C369.426 167.949 365.91 163.164 364.152 156.914C359.074 160.234 354.191 164.141 349.504 168.633C344.816 173.125 339.934 177.324 334.855 181.23C329.973 185.137 324.797 188.457 319.328 191.191C313.859 193.926 307.902 195.293 301.457 195.293C297.551 195.293 294.23 193.633 291.496 190.312C288.957 186.992 287.688 183.672 287.688 180.352ZM428.312 162.48C428.312 158.77 428.801 155.547 429.777 152.812C430.949 150.078 433.781 148.711 438.273 148.711C438.664 148.711 439.543 148.809 440.91 149.004C442.473 149.004 443.547 149.102 444.133 149.297C443.938 158.477 445.402 165.41 448.527 170.098C451.652 174.59 457.512 176.836 466.105 176.836C473.137 176.836 480.07 175.762 486.906 173.613C493.742 171.465 499.895 168.34 505.363 164.238C511.027 159.941 515.52 154.766 518.84 148.711C522.355 142.656 524.113 135.82 524.113 128.203C524.113 123.516 522.453 120.195 519.133 118.242C516.008 116.289 512.492 114.727 508.586 113.555C504.68 112.383 501.066 111.113 497.746 109.746C494.621 108.184 493.059 105.547 493.059 101.836C493.059 97.3438 495.793 93.0469 501.262 88.9453C506.73 84.8438 513.176 81.2305 520.598 78.1055C528.02 74.7852 535.344 72.2461 542.57 70.4883C549.992 68.5352 555.656 67.5586 559.562 67.5586C559.562 73.2227 558.293 77.2266 555.754 79.5703C553.41 81.9141 550.48 83.7695 546.965 85.1367C543.449 86.5039 539.836 87.8711 536.125 89.2383C532.609 90.4102 529.68 92.7539 527.336 96.2695C530.461 98.8086 533 101.152 534.953 103.301C537.102 105.254 538.762 107.402 539.934 109.746C541.105 112.09 541.887 114.727 542.277 117.656C542.668 120.391 542.863 123.711 542.863 127.617C542.863 137.773 540.617 147.051 536.125 155.449C531.828 163.652 526.164 170.781 519.133 176.836C512.102 182.695 504.094 187.285 495.109 190.605C486.125 193.73 476.945 195.293 467.57 195.293C462.492 195.293 457.512 194.707 452.629 193.535C447.941 192.168 443.742 190.117 440.031 187.383C436.516 184.648 433.684 181.23 431.535 177.129C429.387 173.027 428.312 168.145 428.312 162.48ZM570.402 175.957C572.16 164.824 575.48 154.57 580.363 145.195C585.246 135.82 590.812 127.715 597.062 120.879C603.508 113.848 610.441 108.086 617.863 103.594C625.285 99.1016 632.512 96.2695 639.543 95.0977C646.574 93.7305 653.02 94.0234 658.879 95.9766C664.934 97.9297 669.816 101.836 673.527 107.695C673.527 112.188 672.453 116.484 670.305 120.586C668.352 124.688 666.105 128.789 663.566 132.891C661.223 136.992 658.977 141.191 656.828 145.488C654.875 149.785 653.898 154.375 653.898 159.258C653.898 164.336 654.973 168.438 657.121 171.562C659.465 174.492 663.469 175.957 669.133 175.957C673.82 175.957 678.312 175.273 682.609 173.906C687.102 172.539 691.594 171.855 696.086 171.855C696.867 171.855 698.137 171.953 699.895 172.148C701.848 172.148 703.117 172.148 703.703 172.148C701.359 175.469 698.332 178.301 694.621 180.645C690.91 182.988 687.004 185.039 682.902 186.797C678.801 188.359 674.504 189.531 670.012 190.312C665.715 191.094 661.711 191.484 658 191.484C654.484 191.484 651.359 190.703 648.625 189.141C645.891 187.578 643.547 185.527 641.594 182.988C639.641 180.449 638.078 177.617 636.906 174.492C635.93 171.172 635.441 167.949 635.441 164.824C632.512 168.145 629.289 171.66 625.773 175.371C622.453 178.887 618.84 182.109 614.934 185.039C611.223 187.969 607.121 190.41 602.629 192.363C598.332 194.316 593.84 195.293 589.152 195.293C584.074 195.293 579.68 193.438 575.969 189.727C572.258 185.82 570.402 181.23 570.402 175.957ZM589.738 166.875C589.738 168.438 589.738 170.195 589.738 172.148C589.934 174.102 591.203 175.371 593.547 175.957C598.43 174.785 603.996 172.246 610.246 168.34C616.496 164.238 622.355 159.551 627.824 154.277C633.293 148.809 637.883 143.047 641.594 136.992C645.305 130.742 647.16 124.785 647.16 119.121C647.16 118.73 647.062 118.145 646.867 117.363C646.867 116.387 646.867 115.703 646.867 115.312C640.227 115.312 633.488 116.68 626.652 119.414C619.816 122.148 613.664 125.957 608.195 130.84C602.727 135.527 598.234 140.996 594.719 147.246C591.398 153.496 589.738 160.039 589.738 166.875ZM693.156 175.957C693.156 173.223 693.449 170.879 694.035 168.926C694.621 166.777 695.695 164.043 697.258 160.723C698.625 158.77 701.066 155.059 704.582 149.59C708.293 144.121 712.102 138.359 716.008 132.305C720.109 126.25 723.918 120.586 727.434 115.312C731.145 109.844 733.684 106.035 735.051 103.887C736.809 101.348 738.176 99.9805 739.152 99.7852C740.129 99.5898 741.984 99.4922 744.719 99.4922C746.477 99.4922 748.332 99.5898 750.285 99.7852C752.434 99.9805 753.801 101.348 754.387 103.887C751.652 110.527 747.941 116.875 743.254 122.93C738.762 128.789 734.27 134.648 729.777 140.508C725.48 146.367 721.672 152.422 718.352 158.672C715.031 164.727 713.371 171.27 713.371 178.301C714.152 178.301 715.324 178.398 716.887 178.594C718.645 178.789 720.5 178.984 722.453 179.18C724.406 179.375 726.164 179.57 727.727 179.766C729.484 179.961 730.754 179.961 731.535 179.766C732.707 179.57 734.66 179.18 737.395 178.594C740.324 177.812 743.352 177.031 746.477 176.25C749.797 175.469 752.922 174.688 755.852 173.906C758.781 173.125 760.832 172.539 762.004 172.148C762.004 172.539 762.004 173.223 762.004 174.199C762.199 174.98 762.297 175.566 762.297 175.957C762.297 179.863 760.441 183.086 756.73 185.625C753.215 188.164 749.016 190.215 744.133 191.777C739.445 193.145 734.562 194.121 729.484 194.707C724.602 195.098 720.793 195.293 718.059 195.293C715.129 195.293 712.102 195 708.977 194.414C706.047 193.633 703.41 192.461 701.066 190.898C698.723 189.336 696.77 187.383 695.207 185.039C693.84 182.5 693.156 179.473 693.156 175.957ZM778.41 4.27734C780.949 4.27734 783.293 4.375 785.441 4.57031C787.59 4.76562 789.445 5.25391 791.008 6.03516C792.57 6.81641 793.84 7.98828 794.816 9.55078C795.793 11.1133 796.281 13.2617 796.281 15.9961C796.281 17.168 796.281 18.4375 796.281 19.8047C796.281 21.1719 796.086 22.5391 795.695 23.9062C795.5 25.0781 795.012 26.1523 794.23 27.1289C793.449 27.9102 792.18 28.3008 790.422 28.3008C787.688 28.3008 785.441 27.3242 783.684 25.3711C782.121 23.418 780.949 21.1719 780.168 18.6328C779.387 15.8984 778.898 13.1641 778.703 10.4297C778.508 7.69531 778.41 5.64453 778.41 4.27734ZM835.246 88.9453C830.754 89.5312 825.578 92.3633 819.719 97.4414C813.859 102.324 808.195 108.379 802.727 115.605C797.453 122.637 792.961 130.352 789.25 138.75C785.539 146.953 783.684 154.57 783.684 161.602C783.684 167.266 785.148 171.27 788.078 173.613C791.008 175.762 795.207 176.836 800.676 176.836C806.535 176.836 812.199 176.152 817.668 174.785C823.332 173.223 828.898 171.66 834.367 170.098C840.031 168.34 845.598 166.777 851.066 165.41C856.73 163.848 862.492 163.066 868.352 163.066C868.352 165.801 867.961 168.145 867.18 170.098C866.398 171.855 865.227 173.809 863.664 175.957C853.508 180.84 843.059 185.332 832.316 189.434C821.574 193.34 810.344 195.293 798.625 195.293C795.109 195.293 791.398 194.707 787.492 193.535C783.586 192.168 779.973 190.312 776.652 187.969C773.332 185.625 770.5 182.793 768.156 179.473C766.008 176.152 764.934 172.441 764.934 168.34C764.934 159.551 766.203 151.055 768.742 142.852C771.281 134.453 774.797 126.543 779.289 119.121C783.781 111.699 789.152 104.863 795.402 98.6133C801.848 92.3633 808.781 86.8945 816.203 82.207V81.9141C819.133 80.1562 822.453 78.4961 826.164 76.9336C830.07 75.1758 833.684 74.1992 837.004 74.0039C840.324 73.6133 843.059 74.3945 845.207 76.3477C847.551 78.1055 848.723 81.5234 848.723 86.6016C848.723 88.9453 848.527 92.0703 848.137 95.9766C847.746 99.6875 846.672 102.324 844.914 103.887C843.352 104.863 841.301 105.742 838.762 106.523C837.59 106.914 836.418 107.207 835.246 107.402V88.9453Z" fill="#1E1E1E"/>
</g>
<defs>
<filter id="filter0_d_1_3" x="0.0812502" y="0.175781" width="884.97" height="245.204" filterUnits="userSpaceOnUse" color-interpolation-filters="sRGB">
<feFlood flood-opacity="0" result="BackgroundImageFix"/>
<feColorMatrix in="SourceAlpha" type="matrix" values="0 0 0 0 0 0 0 0 0 0 0 0 0 0 0 0 0 0 127 0" result="hardAlpha"/>
<feOffset dx="4" dy="16"/>
<feGaussianBlur stdDeviation="6.35"/>
<feComposite in2="hardAlpha" operator="out"/>
<feColorMatrix type="matrix" values="0 0 0 0 0 0 0 0 0 0 0 0 0 0 0 0 0 0 0.25 0"/>
<feBlend mode="normal" in2="BackgroundImageFix" result="effect1_dropShadow_1_3"/>
<feBlend mode="normal" in="SourceGraphic" in2="effect1_dropShadow_1_3" result="shape"/>
</filter>
</defs>
</svg>
